#N canvas 262 25 960 689 12;
#N canvas 54 138 989 623 Linux 0;
#X text 59 70 the udev system from kernel 2.6 allows special naming
of devices.;
#X text 60 105 Thus the standards in the source cannot be depended
upon.;
#X msg 136 173 device /dev/myname/somewhere;
#X text 56 150 If you know the device name \, then use the message
;
#X text 57 205 Then use the following to turn on IEEE1394;
#X msg 136 233 driver 1;
#X text 52 292 If you do ls -l /dev/dv1394/0 then you will see something
like;
#X text 271 326 2007-08-22 18:48 /dev/dv1394/0;
#X text 52 325 crw-rw---- 1 root video 171 \, 32;
#X text 54 346 Which means that /dev/dv1394 is a character device (c
at start) with major number 171 \, so it is an ieee1394 device.;
#X text 53 380 This should help you find the device and make it work.
;
#X text 55 435 Note that the major number may change in the future
(udev allows arbitrary major numbers) so this might get harder.;
#X text 383 506 Added 22 August 2007;
#X text 61 31 Getting DV camera (ieee1394) working on (debian) linux
;
#X text 59 403 Note /dev/raw1394 is NOT a usable device here!;
#X text 588 103 driver 0 is video4linux;
#X text 588 117 driver 1 is ieee1394;
#X text 587 147 device N should enumerate through various cameras;
#X text 581 72 quality message only seems to have 1 and 2 as values
;
#X text 623 32 notes on messages under Linux;
#X text 592 190 enumerate does not work;
#X text 595 210 dialog does not work;
#X text 593 229 dimen does not work;
#X text 52 257 If you do not know the name of your camera device \,
then the following might help you find it in the /dev heirarchy.;
#X text 97 337 comment;
#X restore 16 633 pd Linux Notes;
#N canvas 0 0 450 300 SGI 0;
#X text 24 61 SGI only:;
#X text 50 84 swap 1/0 : swap upside down;
#X text 49 101 offset x y : set the x y offset of the captured frame
;
#X restore 174 575 pd SGI Notes;
#X obj 47 -100 cnv 15 280 500 empty empty empty 20 12 0 14 -228992
-66577 0;
#X obj 182 389 cnv 15 100 60 empty empty empty 20 12 0 14 -195568 -66577
0;
#N canvas 216 25 450 300 gemwin 0;
#X obj 67 89 outlet;
#X obj 67 10 inlet;
#X msg 67 70 set destroy;
#X msg 132 112 create \, 1;
#X msg 198 112 destroy;
#X msg 156 71 set create;
#X obj 67 41 route create;
#X obj 281 26 inlet;
#X obj 211 214 gemwin 20;
#X connect 1 0 6 0;
#X connect 2 0 0 0;
#X connect 3 0 8 0;
#X connect 4 0 8 0;
#X connect 5 0 0 0;
#X connect 6 0 2 0;
#X connect 6 0 3 0;
#X connect 6 1 5 0;
#X connect 6 1 4 0;
#X connect 7 0 8 0;
#X restore 187 428 pd gemwin;
#X msg 238 364 destroy;
#X text 183 385 Create window:;
#X obj 51 -61 cnv 15 230 280 empty empty empty 20 12 0 14 -24198 -66577
0;
#X obj 55 -126 gemhead;
#X msg 81 -23 dimen 64 64;
#X msg 71 -48 dimen 256 128;
#X obj 47 582 pix_texture;
#X msg 120 114 enumerate;
#X msg 126 136 dialog;
#X msg 89 6 colorspace RGBA;
#X obj 52 135 pix_video;
#X msg 110 88 device /dev/dv1394/0;
#X msg 214 161 driver 1;
#X msg 130 161 driver 0;
#X msg 94 64 device 0;
#N canvas 162 133 570 420 serin 0;
#X obj 205 60 cnv 20 20 20 empty \$0-open-canvas 0 4 10 0 16 -233017
-1 0;
#X obj 60 61 hradio 18 1 1 8 empty empty empty 0 -6 0 8 -225271 -1
-1 0;
#X obj 60 13 inlet;
#X msg 200 202 label \$1;
#X obj 200 180 makefilename %d;
#X obj 59 108 int;
#X obj 59 337 outlet;
#X msg 201 306 set \$1 \$2;
#X obj 59 266 trigger bang anything;
#X obj 201 286 list;
#X obj 200 225 send \$0-open-canvas;
#X msg 60 210 device \$1;
#X connect 1 0 5 0;
#X connect 2 0 1 0;
#X connect 3 0 10 0;
#X connect 4 0 3 0;
#X connect 5 0 4 0;
#X connect 5 0 11 0;
#X connect 7 0 6 0;
#X connect 8 0 6 0;
#X connect 8 1 9 0;
#X connect 9 0 7 0;
#X connect 11 0 8 0;
#X coords 0 -1 1 1 165 20 1 60 60;
#X restore 94 40 pd serin;
#X msg 137 187 driver dv;
#X obj 64 550 outlet~;
#X obj 48 605 rectangle 3 3;
#X obj 31 393 pix_scanned;
#X obj 60 429 *~ 0.1;
#X floatatom 119 416 5 0 0 0 - - -;
#X msg 196 309 dimen 80 80;
#X floatatom 20 341 5 0 0 0 - - -;
#X obj 17 366 * 0.0001;
#X floatatom 77 365 5 0 0 0 - - -;
#X floatatom 114 366 5 0 0 0 - - -;
#X msg -14 341 80;
#X msg 75 341 88;
#X msg 112 342 40;
#X obj -51 254 loadbang;
#X obj 93 290 pix_scanned;
#X floatatom 82 238 5 0 0 0 - - -;
#X obj 79 263 * 0.0001;
#X floatatom 141 263 5 0 0 0 - - -;
#X floatatom 176 263 5 0 0 0 - - -;
#X msg 48 238 80;
#X msg 133 228 88;
#X msg 174 239 40;
#X obj 166 -132 block~ 256;
#X obj 67 494 simpleRep;
#X obj -6 430 tgl 15 0 empty empty empty 17 7 0 10 -262144 -1 -1 1
1;
#X obj 139 464 osc~ 3;
#X connect 4 0 5 0;
#X connect 5 0 4 0;
#X connect 8 0 15 0;
#X connect 9 0 15 0;
#X connect 10 0 15 0;
#X connect 11 0 23 0;
#X connect 12 0 15 0;
#X connect 13 0 15 0;
#X connect 14 0 15 0;
#X connect 15 0 36 0;
#X connect 16 0 15 0;
#X connect 17 0 15 0;
#X connect 18 0 15 0;
#X connect 19 0 15 0;
#X connect 20 0 19 0;
#X connect 21 0 15 0;
#X connect 24 0 11 0;
#X connect 24 1 25 0;
#X connect 25 0 45 1;
#X connect 26 0 25 1;
#X connect 27 0 4 1;
#X connect 28 0 29 0;
#X connect 29 0 24 1;
#X connect 30 0 24 2;
#X connect 31 0 24 3;
#X connect 32 0 28 0;
#X connect 33 0 30 0;
#X connect 34 0 31 0;
#X connect 35 0 32 0;
#X connect 35 0 33 0;
#X connect 35 0 34 0;
#X connect 35 0 27 0;
#X connect 36 0 24 0;
#X connect 36 1 25 0;
#X connect 37 0 38 0;
#X connect 38 0 36 1;
#X connect 39 0 36 2;
#X connect 40 0 36 3;
#X connect 41 0 37 0;
#X connect 42 0 39 0;
#X connect 43 0 40 0;
#X connect 45 0 22 0;
#X connect 46 0 45 0;
#X connect 47 0 45 1;
