#N canvas 692 223 493 395 10;
#X obj 160 50 bng 15 250 50 0 empty empty empty 17 7 0 10 -262144 -1
-1;
#X obj 118 147 ssampler s\$1.wav \$1 \$2 \$3;
#X obj 83 83 inlet;
#X obj 248 81 alternate;
#X obj 351 188 float \$4;
#X obj 296 168 random;
#X obj 310 219 *;
#X obj 273 258 delay;
#X obj 312 124 t b b b;
#X obj 199 99 t b b;
#X obj 188 234 delay \$3;
#X obj 196 332 gate;
#X obj 334 290 inlet;
#X obj 407 318 inlet~;
#X obj 184 392 *~;
#X obj 189 428 outlet~;
#X connect 0 0 1 0;
#X connect 1 0 14 0;
#X connect 2 0 3 0;
#X connect 3 0 9 0;
#X connect 3 1 8 0;
#X connect 4 0 6 1;
#X connect 5 0 6 0;
#X connect 6 0 7 1;
#X connect 7 0 11 1;
#X connect 8 0 7 0;
#X connect 8 1 5 0;
#X connect 8 2 4 0;
#X connect 9 0 10 0;
#X connect 9 1 1 0;
#X connect 10 0 11 1;
#X connect 11 0 3 0;
#X connect 12 0 11 0;
#X connect 13 0 14 1;
#X connect 14 0 15 0;
