#N canvas 296 145 772 471 10;
#X obj 186 70 tgl 15 0 empty empty empty 17 7 0 10 -262144 -1 -1 1
1;
#X obj 297 77 inlet~;
#X obj 296 216 *~ 1;
#X obj 173 12 inlet;
#X obj 282 119 *~;
#X obj 125 316 outlet~;
#X obj 127 261 repeater 2 440000 10000 1;
#X obj 297 156 lp2~ 15 0.707 200;
#X connect 0 0 6 0;
#X connect 0 0 6 1;
#X connect 1 0 4 0;
#X connect 1 0 4 1;
#X connect 2 0 6 2;
#X connect 3 0 0 0;
#X connect 4 0 7 0;
#X connect 6 0 5 0;
#X connect 7 0 2 0;
