#N canvas 452 157 828 624 10;
#N canvas 0 22 450 300 (subpatch) 0;
#X array thesound 700001 float 0;
#X coords 0 1.02 700000 -1.02 200 130 1;
#X restore 328 29 graph;
#X obj 99 87 loadbang;
#X obj 54 300 soundfiler;
#X obj 80 182 symbol \$1;
#X msg 223 270 \; thesound rename sample-\$1;
#X obj 112 150 t b b;
#X obj 67 212 pack s f;
#X obj 251 210 float \$2;
#X msg 56 251 read \$1 sample-\$2;
#X obj 558 349 float \$3;
#X obj 527 423 line~;
#X msg 515 385 0;
#X obj 550 468 tabread4~ sample-\$2;
#X obj 558 392 pack 199999 14000;
#X obj 542 223 inlet;
#X obj 639 348 float \$4;
#X obj 554 300 t b b b;
#X obj 539 521 outlet~;
#X connect 1 0 5 0;
#X connect 3 0 6 0;
#X connect 5 0 3 0;
#X connect 5 1 7 0;
#X connect 6 0 8 0;
#X connect 7 0 4 0;
#X connect 7 0 6 1;
#X connect 8 0 2 0;
#X connect 9 0 13 0;
#X connect 10 0 12 0;
#X connect 11 0 10 0;
#X connect 12 0 17 0;
#X connect 13 0 10 0;
#X connect 14 0 16 0;
#X connect 15 0 13 1;
#X connect 16 0 9 0;
#X connect 16 1 15 0;
#X connect 16 2 11 0;
